<svg data-v-423bf9ae="" xmlns="http://www.w3.org/2000/svg" viewBox="0 0 246 104" class="iconLeftSlogan"><!----><!----><!----><g data-v-423bf9ae="" id="23466510-e96f-4da4-9242-c50fb60df740" fill="#ffffff" transform="matrix(6.1601643562316895,0,0,6.1601643562316895,87.15338134765625,-27.166322708129883)"><path d="M3.32 14.01L3.32 14.01Q3.12 14.01 3.11 13.82L3.11 13.82L2.23 5.35L2.23 5.35Q2.20 5.11 2.05 4.96L2.05 4.96L2.05 4.96Q1.90 4.82 1.68 4.82L1.68 4.82L1.46 4.82L1.46 4.82Q1.33 4.82 1.33 4.68L1.33 4.68L1.33 4.68Q1.33 4.44 1.55 4.44L1.55 4.44L4.59 4.41L4.59 4.41Q4.70 4.41 4.70 4.52L4.70 4.52L4.70 4.52Q4.70 4.63 4.65 4.73L4.65 4.73L4.65 4.73Q4.59 4.82 4.49 4.82L4.49 4.82L3.96 4.82L3.96 4.82Q3.54 4.82 3.54 5.29L3.54 5.29L4.19 12.49L7.73 5.94L7.73 5.94Q7.81 5.75 7.87 5.53L7.87 5.53L7.87 5.53Q7.88 5.47 7.88 5.33L7.88 5.33L7.88 5.33Q7.88 5.10 7.71 4.96L7.71 4.96L7.71 4.96Q7.55 4.82 7.24 4.82L7.24 4.82L7.01 4.82L7.01 4.82Q6.89 4.82 6.89 4.68L6.89 4.68L6.89 4.68Q6.89 4.55 6.94 4.49L6.94 4.49L6.94 4.49Q6.99 4.44 7.10 4.44L7.10 4.44L9.60 4.41L9.60 4.41Q9.73 4.41 9.73 4.54L9.73 4.54L9.73 4.54Q9.73 4.63 9.67 4.73L9.67 4.73L9.67 4.73Q9.62 4.82 9.53 4.82L9.53 4.82L9.53 4.82Q9.18 4.82 8.88 5.03L8.88 5.03L8.88 5.03Q8.58 5.24 8.37 5.60L8.37 5.60L3.77 13.87L3.77 13.87Q3.70 14.01 3.51 14.01L3.51 14.01L3.32 14.01ZM12.75 14.15L12.75 14.15Q12.39 14.15 12.16 13.94L12.16 13.94L12.16 13.94Q11.93 13.73 11.93 13.29L11.93 13.29L11.93 13.29Q11.93 12.84 12.07 12.38L12.07 12.38L12.07 12.38Q12.21 11.91 12.50 11.09L12.50 11.09L12.50 11.09Q12.73 10.53 12.84 10.16L12.84 10.16L12.84 10.16Q12.95 9.80 12.95 9.53L12.95 9.53L12.95 9.53Q12.95 8.78 12.21 8.78L12.21 8.78L12.21 8.78Q11.38 8.78 10.91 9.52L10.91 9.52L10.91 9.52Q10.44 10.26 10.23 11.13L10.23 11.13L9.60 13.83L9.60 13.83Q9.56 14.01 9.38 14.01L9.38 14.01L8.90 14.01L8.90 14.01Q8.68 14.01 8.72 13.78L8.72 13.78L10.65 5.19L10.65 5.19Q10.67 5.14 10.67 5.05L10.67 5.05L10.67 5.05Q10.67 4.80 10.46 4.75L10.46 4.75L10.46 4.75Q10.26 4.70 9.88 4.70L9.88 4.70L9.88 4.70Q9.70 4.70 9.70 4.56L9.70 4.56L9.70 4.56Q9.70 4.48 9.74 4.45L9.74 4.45L9.74 4.45Q9.79 4.41 9.88 4.41L9.88 4.41L11.42 4.41L11.42 4.41Q11.66 4.41 11.66 4.63L11.66 4.63L11.66 4.63Q11.66 4.70 11.65 4.75L11.65 4.75L10.61 9.45L10.74 9.45L10.74 9.45Q10.99 9.06 11.52 8.65L11.52 8.65L11.52 8.65Q12.04 8.23 12.80 8.23L12.80 8.23L12.80 8.23Q13.44 8.23 13.69 8.54L13.69 8.54L13.69 8.54Q13.93 8.85 13.93 9.37L13.93 9.37L13.93 9.37Q13.93 9.76 13.80 10.22L13.80 10.22L13.80 10.22Q13.66 10.68 13.37 11.48L13.37 11.48L13.37 11.48Q13.13 12.10 13.00 12.52L13.00 12.52L13.00 12.52Q12.87 12.95 12.87 13.26L12.87 13.26L12.87 13.26Q12.87 13.71 13.17 13.71L13.17 13.71L13.17 13.71Q13.47 13.71 13.80 13.26L13.80 13.26L13.80 13.26Q14.13 12.81 14.45 12.03L14.45 12.03L14.62 12.07L14.62 12.07Q14.18 13.06 13.78 13.61L13.78 13.61L13.78 13.61Q13.37 14.15 12.75 14.15L12.75 14.15ZM17.30 14.14L17.30 14.14Q16.49 14.14 15.92 13.61L15.92 13.61L15.92 13.61Q15.34 13.08 15.34 12.08L15.34 12.08L15.34 12.08Q15.34 11.80 15.44 11.27L15.44 11.27L15.44 11.27Q15.65 10.36 16.17 9.67L16.17 9.67L16.17 9.67Q16.69 8.97 17.33 8.60L17.33 8.60L17.33 8.60Q17.98 8.23 18.55 8.23L18.55 8.23L18.55 8.23Q19.42 8.23 19.80 8.80L19.80 8.80L19.80 8.80Q20.19 9.37 20.19 10.12L20.19 10.12L20.19 10.12Q20.19 10.47 20.13 10.68L20.13 10.68L20.13 10.68Q20.06 11.02 19.81 11.02L19.81 11.02L17.16 11.02L17.16 11.02Q16.81 11.02 16.65 11.07L16.65 11.07L16.65 11.07Q16.49 11.12 16.45 11.31L16.45 11.31L16.45 11.31Q16.44 11.41 16.37 11.77L16.37 11.77L16.37 11.77Q16.30 12.14 16.30 12.45L16.30 12.45L16.30 12.45Q16.30 13.83 17.57 13.83L17.57 13.83L17.61 13.83L17.61 13.83Q18.03 13.82 18.47 13.57L18.47 13.57L18.47 13.57Q18.91 13.33 19.47 12.67L19.47 12.67L19.47 12.67Q19.53 12.61 19.63 12.61L19.63 12.61L19.63 12.61Q19.70 12.61 19.72 12.66L19.72 12.66L19.72 12.66Q19.74 12.70 19.68 12.78L19.68 12.78L19.68 12.78Q19.57 12.95 19.26 13.27L19.26 13.27L19.26 13.27Q18.94 13.58 18.42 13.86L18.42 13.86L18.42 13.86Q17.91 14.14 17.30 14.14L17.30 14.14ZM16.65 10.67L18.87 10.67L18.87 10.67Q19.07 10.67 19.11 10.63L19.11 10.63L19.11 10.63Q19.15 10.60 19.19 10.42L19.19 10.42L19.19 10.42Q19.29 10.02 19.29 9.53L19.29 9.53L19.29 9.53Q19.29 8.47 18.56 8.47L18.56 8.47L18.56 8.47Q18.03 8.47 17.51 9.02L17.51 9.02L17.51 9.02Q16.98 9.58 16.65 10.67L16.65 10.67ZM22.89 14.14L22.89 14.14Q22.08 14.14 21.50 13.61L21.50 13.61L21.50 13.61Q20.93 13.08 20.93 12.08L20.93 12.08L20.93 12.08Q20.93 11.80 21.03 11.27L21.03 11.27L21.03 11.27Q21.24 10.36 21.76 9.67L21.76 9.67L21.76 9.67Q22.27 8.97 22.92 8.60L22.92 8.60L22.92 8.60Q23.56 8.23 24.14 8.23L24.14 8.23L24.14 8.23Q25.00 8.23 25.39 8.80L25.39 8.80L25.39 8.80Q25.77 9.37 25.77 10.12L25.77 10.12L25.77 10.12Q25.77 10.47 25.72 10.68L25.72 10.68L25.72 10.68Q25.65 11.02 25.40 11.02L25.40 11.02L22.75 11.02L22.75 11.02Q22.40 11.02 22.24 11.07L22.24 11.07L22.24 11.07Q22.08 11.12 22.04 11.31L22.04 11.31L22.04 11.31Q22.02 11.41 21.95 11.77L21.95 11.77L21.95 11.77Q21.88 12.14 21.88 12.45L21.88 12.45L21.88 12.45Q21.88 13.83 23.16 13.83L23.16 13.83L23.20 13.83L23.20 13.83Q23.62 13.82 24.06 13.57L24.06 13.57L24.06 13.57Q24.50 13.33 25.06 12.67L25.06 12.67L25.06 12.67Q25.12 12.61 25.21 12.61L25.21 12.61L25.21 12.61Q25.28 12.61 25.31 12.66L25.31 12.66L25.31 12.66Q25.33 12.70 25.27 12.78L25.27 12.78L25.27 12.78Q25.16 12.95 24.84 13.27L24.84 13.27L24.84 13.27Q24.53 13.58 24.01 13.86L24.01 13.86L24.01 13.86Q23.49 14.14 22.89 14.14L22.89 14.14ZM22.23 10.67L24.46 10.67L24.46 10.67Q24.65 10.67 24.70 10.63L24.70 10.63L24.70 10.63Q24.74 10.60 24.78 10.42L24.78 10.42L24.78 10.42Q24.88 10.02 24.88 9.53L24.88 9.53L24.88 9.53Q24.88 8.47 24.15 8.47L24.15 8.47L24.15 8.47Q23.62 8.47 23.09 9.02L23.09 9.02L23.09 9.02Q22.57 9.58 22.23 10.67L22.23 10.67Z"></path></g><!----><g data-v-423bf9ae="" id="d238c075-41f6-4a37-a874-013721c48952" transform="matrix(1.073799967765808,0,0,1.073799967765808,-15.773998260498047,-1.0109975337982178)" stroke="none" fill="#ffffff"><path d="M49.999 31.693c-19.345 0-35.083-12.515-35.083-27.896a2.119 2.119 0 0 1 4.238 0c0 13.046 13.836 23.659 30.845 23.659S80.846 16.843 80.846 3.797c0-1.17.947-2.118 2.117-2.118 1.174 0 2.121.948 2.121 2.118 0 15.382-15.738 27.896-35.085 27.896zM82.963 98.321a2.116 2.116 0 0 1-2.117-2.119c0-13.044-13.838-23.657-30.847-23.657-17.008 0-30.845 10.613-30.845 23.657a2.118 2.118 0 1 1-4.238 0c0-15.38 15.738-27.895 35.083-27.895 19.347 0 35.085 12.515 35.085 27.895a2.117 2.117 0 0 1-2.121 2.119z"></path><path d="M40.247 72.545a2.118 2.118 0 0 1-2.119-2.119V29.574a2.119 2.119 0 0 1 4.239 0v40.852a2.118 2.118 0 0 1-2.12 2.119zM60.42 72.545a2.117 2.117 0 0 1-2.119-2.119V29.574c0-1.17.947-2.118 2.119-2.118s2.119.948 2.119 2.118v40.852a2.117 2.117 0 0 1-2.119 2.119z"></path></g><!----><g data-v-423bf9ae="" id="1912e054-80f9-4579-95de-746d55c06741" fill="#ffffff" transform="matrix(0.6229623556137085,0,0,0.6229623556137085,94.4368667602539,57.732418060302734)"><path d="M4.52 3.78L4.52 3.78Q5.96 3.78 6.81 4.50L6.81 4.50L6.81 4.50Q7.66 5.22 7.66 6.48L7.66 6.48L7.66 6.48Q7.66 7.74 6.81 8.47L6.81 8.47L6.81 8.47Q5.96 9.20 4.52 9.20L4.52 9.20L2.16 9.20L2.16 13.02L1.46 13.02L1.46 3.78L4.52 3.78ZM4.44 8.54L4.44 8.54Q5.64 8.54 6.28 8.01L6.28 8.01L6.28 8.01Q6.92 7.48 6.92 6.48L6.92 6.48L6.92 6.48Q6.92 5.50 6.28 4.96L6.28 4.96L6.28 4.96Q5.64 4.42 4.44 4.42L4.44 4.42L2.16 4.42L2.16 8.54L4.44 8.54ZM17.37 12.38L23.21 12.38L23.21 13.02L16.67 13.02L16.67 3.78L22.99 3.78L22.99 4.42L17.37 4.42L17.37 7.99L21.81 7.99L21.81 8.65L17.37 8.65L17.37 12.38ZM39.19 13.02L38.36 13.02L35.71 9.02L35.67 9.02L32.94 9.02L32.94 13.02L32.24 13.02L32.24 3.78L35.67 3.78L35.67 3.78Q37.06 3.78 37.88 4.48L37.88 4.48L37.88 4.48Q38.70 5.18 38.70 6.40L38.70 6.40L38.70 6.40Q38.70 7.41 38.11 8.07L38.11 8.07L38.11 8.07Q37.52 8.74 36.50 8.93L36.50 8.93L39.19 13.02ZM32.94 4.42L32.94 8.36L35.66 8.36L35.66 8.36Q36.78 8.36 37.37 7.85L37.37 7.85L37.37 7.85Q37.97 7.35 37.97 6.40L37.97 6.40L37.97 6.40Q37.97 5.45 37.37 4.93L37.37 4.93L37.37 4.93Q36.78 4.42 35.66 4.42L35.66 4.42L32.94 4.42ZM51.06 3.64L51.06 3.64Q53.66 3.64 54.54 5.68L54.54 5.68L53.94 6.17L53.94 6.17Q53.59 5.18 52.90 4.73L52.90 4.73L52.90 4.73Q52.21 4.28 51.07 4.28L51.07 4.28L51.07 4.28Q50.26 4.28 49.66 4.54L49.66 4.54L49.66 4.54Q49.06 4.79 48.74 5.22L48.74 5.22L48.74 5.22Q48.43 5.66 48.43 6.20L48.43 6.20L48.43 6.20Q48.43 6.73 48.69 7.08L48.69 7.08L48.69 7.08Q48.96 7.43 49.59 7.68L49.59 7.68L49.59 7.68Q50.23 7.92 51.35 8.12L51.35 8.12L51.35 8.12Q53.16 8.43 53.91 9.02L53.91 9.02L53.91 9.02Q54.67 9.60 54.67 10.64L54.67 10.64L54.67 10.64Q54.67 11.38 54.24 11.96L54.24 11.96L54.24 11.96Q53.80 12.53 53.01 12.84L53.01 12.84L53.01 12.84Q52.22 13.16 51.20 13.16L51.20 13.16L51.20 13.16Q49.74 13.16 48.74 12.58L48.74 12.58L48.74 12.58Q47.74 12.00 47.38 10.95L47.38 10.95L47.99 10.47L47.99 10.47Q48.27 11.47 49.12 11.99L49.12 11.99L49.12 11.99Q49.97 12.52 51.21 12.52L51.21 12.52L51.21 12.52Q52.42 12.52 53.18 12.03L53.18 12.03L53.18 12.03Q53.94 11.54 53.94 10.68L53.94 10.68L53.94 10.68Q53.94 9.94 53.32 9.51L53.32 9.51L53.32 9.51Q52.70 9.07 51.16 8.81L51.16 8.81L51.16 8.81Q49.85 8.58 49.10 8.26L49.10 8.26L49.10 8.26Q48.34 7.94 48.01 7.46L48.01 7.46L48.01 7.46Q47.68 6.99 47.68 6.27L47.68 6.27L47.68 6.27Q47.68 5.56 48.10 4.96L48.10 4.96L48.10 4.96Q48.51 4.35 49.27 4.00L49.27 4.00L49.27 4.00Q50.04 3.64 51.06 3.64L51.06 3.64ZM67.54 3.64L67.54 3.64Q68.84 3.64 69.80 4.22L69.80 4.22L69.80 4.22Q70.76 4.80 71.27 5.87L71.27 5.87L71.27 5.87Q71.79 6.94 71.79 8.40L71.79 8.40L71.79 8.40Q71.79 9.86 71.27 10.93L71.27 10.93L71.27 10.93Q70.76 12.00 69.80 12.58L69.80 12.58L69.80 12.58Q68.84 13.16 67.54 13.16L67.54 13.16L67.54 13.16Q66.23 13.16 65.28 12.58L65.28 12.58L65.28 12.58Q64.32 12.00 63.80 10.93L63.80 10.93L63.80 10.93Q63.28 9.86 63.28 8.40L63.28 8.40L63.28 8.40Q63.28 6.94 63.80 5.87L63.80 5.87L63.80 5.87Q64.32 4.80 65.28 4.22L65.28 4.22L65.28 4.22Q66.23 3.64 67.54 3.64L67.54 3.64ZM67.54 4.28L67.54 4.28Q66.46 4.28 65.67 4.78L65.67 4.78L65.67 4.78Q64.88 5.28 64.45 6.21L64.45 6.21L64.45 6.21Q64.02 7.14 64.02 8.40L64.02 8.40L64.02 8.40Q64.02 9.66 64.45 10.59L64.45 10.59L64.45 10.59Q64.88 11.52 65.67 12.02L65.67 12.02L65.67 12.02Q66.46 12.52 67.54 12.52L67.54 12.52L67.54 12.52Q68.61 12.52 69.41 12.02L69.41 12.02L69.41 12.02Q70.21 11.52 70.64 10.59L70.64 10.59L70.64 10.59Q71.06 9.66 71.06 8.40L71.06 8.40L71.06 8.40Q71.06 7.14 70.64 6.21L70.64 6.21L70.64 6.21Q70.21 5.28 69.41 4.78L69.41 4.78L69.41 4.78Q68.61 4.28 67.54 4.28L67.54 4.28ZM88.21 3.78L88.21 13.02L87.35 13.02L82.45 5.77L81.76 4.54L81.75 4.54L81.79 5.70L81.79 13.02L81.12 13.02L81.12 3.78L82.00 3.78L86.88 11.02L87.58 12.26L87.56 11.10L87.56 3.78L88.21 3.78ZM104.41 13.02L103.25 10.12L98.83 10.12L97.68 13.02L96.94 13.02L100.63 3.78L101.46 3.78L105.15 13.02L104.41 13.02ZM99.09 9.48L103.00 9.48L101.39 5.45L101.05 4.47L101.04 4.47L100.70 5.42L99.09 9.48ZM114.58 12.38L120.12 12.38L120.12 13.02L113.88 13.02L113.88 3.78L114.58 3.78L114.58 12.38ZM139.89 13.02L139.89 3.78L143.15 3.78L143.15 3.78Q144.66 3.78 145.41 4.41L145.41 4.41L145.41 4.41Q146.16 5.04 146.16 6.23L146.16 6.23L146.16 6.23Q146.16 7.04 145.72 7.60L145.72 7.60L145.72 7.60Q145.28 8.16 144.47 8.33L144.47 8.33L144.47 8.34L144.47 8.34Q145.36 8.48 145.89 9.07L145.89 9.07L145.89 9.07Q146.41 9.66 146.41 10.53L146.41 10.53L146.41 10.53Q146.41 11.72 145.57 12.37L145.57 12.37L145.57 12.37Q144.72 13.02 143.15 13.02L143.15 13.02L139.89 13.02ZM140.59 8.04L143.16 8.04L143.16 8.04Q145.42 8.04 145.42 6.23L145.42 6.23L145.42 6.23Q145.42 4.42 143.16 4.42L143.16 4.42L140.59 4.42L140.59 8.04ZM140.59 12.38L143.29 12.38L143.29 12.38Q144.47 12.38 145.07 11.90L145.07 11.90L145.07 11.90Q145.67 11.42 145.67 10.53L145.67 10.53L145.67 10.53Q145.67 9.62 145.07 9.15L145.07 9.15L145.07 9.15Q144.47 8.68 143.29 8.68L143.29 8.68L140.59 8.68L140.59 12.38ZM156.44 12.38L161.98 12.38L161.98 13.02L155.74 13.02L155.74 3.78L156.44 3.78L156.44 12.38ZM173.87 3.64L173.87 3.64Q175.17 3.64 176.13 4.22L176.13 4.22L176.13 4.22Q177.09 4.80 177.60 5.87L177.60 5.87L177.60 5.87Q178.12 6.94 178.12 8.40L178.12 8.40L178.12 8.40Q178.12 9.86 177.60 10.93L177.60 10.93L177.60 10.93Q177.09 12.00 176.13 12.58L176.13 12.58L176.13 12.58Q175.17 13.16 173.87 13.16L173.87 13.16L173.87 13.16Q172.56 13.16 171.61 12.58L171.61 12.58L171.61 12.58Q170.65 12.00 170.13 10.93L170.13 10.93L170.13 10.93Q169.61 9.86 169.61 8.40L169.61 8.40L169.61 8.40Q169.61 6.94 170.13 5.87L170.13 5.87L170.13 5.87Q170.65 4.80 171.61 4.22L171.61 4.22L171.61 4.22Q172.56 3.64 173.87 3.64L173.87 3.64ZM173.87 4.28L173.87 4.28Q172.79 4.28 172.00 4.78L172.00 4.78L172.00 4.78Q171.21 5.28 170.78 6.21L170.78 6.21L170.78 6.21Q170.35 7.14 170.35 8.40L170.35 8.40L170.35 8.40Q170.35 9.66 170.78 10.59L170.78 10.59L170.78 10.59Q171.21 11.52 172.00 12.02L172.00 12.02L172.00 12.02Q172.79 12.52 173.87 12.52L173.87 12.52L173.87 12.52Q174.94 12.52 175.74 12.02L175.74 12.02L175.74 12.02Q176.54 11.52 176.97 10.59L176.97 10.59L176.97 10.59Q177.39 9.66 177.39 8.40L177.39 8.40L177.39 8.40Q177.39 7.14 176.97 6.21L176.97 6.21L176.97 6.21Q176.54 5.28 175.74 4.78L175.74 4.78L175.74 4.78Q174.94 4.28 173.87 4.28L173.87 4.28ZM191.00 8.50L194.80 8.50L194.80 13.02L194.24 13.02L194.21 11.41L194.21 11.41Q193.83 12.25 193.03 12.71L193.03 12.71L193.03 12.71Q192.22 13.16 191.03 13.16L191.03 13.16L191.03 13.16Q189.77 13.16 188.83 12.58L188.83 12.58L188.83 12.58Q187.88 12.00 187.37 10.92L187.37 10.92L187.37 10.92Q186.86 9.84 186.86 8.40L186.86 8.40L186.86 8.40Q186.86 6.96 187.38 5.88L187.38 5.88L187.38 5.88Q187.91 4.80 188.86 4.22L188.86 4.22L188.86 4.22Q189.81 3.64 191.07 3.64L191.07 3.64L191.07 3.64Q192.49 3.64 193.38 4.20L193.38 4.20L193.38 4.20Q194.28 4.76 194.73 5.91L194.73 5.91L194.08 6.24L194.08 6.24Q193.76 5.28 193.00 4.78L193.00 4.78L193.00 4.78Q192.23 4.28 191.07 4.28L191.07 4.28L191.07 4.28Q190.04 4.28 189.25 4.78L189.25 4.78L189.25 4.78Q188.47 5.28 188.03 6.21L188.03 6.21L188.03 6.21Q187.60 7.14 187.60 8.40L187.60 8.40L187.60 8.40Q187.60 10.32 188.52 11.42L188.52 11.42L188.52 11.42Q189.43 12.52 191.06 12.52L191.06 12.52L191.06 12.52Q192.07 12.52 192.77 12.12L192.77 12.12L192.77 12.12Q193.47 11.72 193.80 11.07L193.80 11.07L193.80 11.07Q194.14 10.42 194.14 9.67L194.14 9.67L194.14 9.16L191.00 9.16L191.00 8.50Z"></path></g></svg>