<svg data-v-423bf9ae="" xmlns="http://www.w3.org/2000/svg" viewBox="0 0 150.55442161217962 60" class="font"><!----><!----><!----><g data-v-423bf9ae="" id="07aa0f77-1eff-40b8-b008-a3a4c761cc87" fill="black" transform="matrix(6.1601643562316895,0,0,6.1601643562316895,-8.193014144897461,-27.166322708129883)"><path d="M3.32 14.01L3.32 14.01Q3.12 14.01 3.11 13.82L3.11 13.82L2.23 5.35L2.23 5.35Q2.20 5.11 2.05 4.96L2.05 4.96L2.05 4.96Q1.90 4.82 1.68 4.82L1.68 4.82L1.46 4.82L1.46 4.82Q1.33 4.82 1.33 4.68L1.33 4.68L1.33 4.68Q1.33 4.44 1.55 4.44L1.55 4.44L4.59 4.41L4.59 4.41Q4.70 4.41 4.70 4.52L4.70 4.52L4.70 4.52Q4.70 4.63 4.65 4.73L4.65 4.73L4.65 4.73Q4.59 4.82 4.49 4.82L4.49 4.82L3.96 4.82L3.96 4.82Q3.54 4.82 3.54 5.29L3.54 5.29L4.19 12.49L7.73 5.94L7.73 5.94Q7.81 5.75 7.87 5.53L7.87 5.53L7.87 5.53Q7.88 5.47 7.88 5.33L7.88 5.33L7.88 5.33Q7.88 5.10 7.71 4.96L7.71 4.96L7.71 4.96Q7.55 4.82 7.24 4.82L7.24 4.82L7.01 4.82L7.01 4.82Q6.89 4.82 6.89 4.68L6.89 4.68L6.89 4.68Q6.89 4.55 6.94 4.49L6.94 4.49L6.94 4.49Q6.99 4.44 7.10 4.44L7.10 4.44L9.60 4.41L9.60 4.41Q9.73 4.41 9.73 4.54L9.73 4.54L9.73 4.54Q9.73 4.63 9.67 4.73L9.67 4.73L9.67 4.73Q9.62 4.82 9.53 4.82L9.53 4.82L9.53 4.82Q9.18 4.82 8.88 5.03L8.88 5.03L8.88 5.03Q8.58 5.24 8.37 5.60L8.37 5.60L3.77 13.87L3.77 13.87Q3.70 14.01 3.51 14.01L3.51 14.01L3.32 14.01ZM12.75 14.15L12.75 14.15Q12.39 14.15 12.16 13.94L12.16 13.94L12.16 13.94Q11.93 13.73 11.93 13.29L11.93 13.29L11.93 13.29Q11.93 12.84 12.07 12.38L12.07 12.38L12.07 12.38Q12.21 11.91 12.50 11.09L12.50 11.09L12.50 11.09Q12.73 10.53 12.84 10.16L12.84 10.16L12.84 10.16Q12.95 9.80 12.95 9.53L12.95 9.53L12.95 9.53Q12.95 8.78 12.21 8.78L12.21 8.78L12.21 8.78Q11.38 8.78 10.91 9.52L10.91 9.52L10.91 9.52Q10.44 10.26 10.23 11.13L10.23 11.13L9.60 13.83L9.60 13.83Q9.56 14.01 9.38 14.01L9.38 14.01L8.90 14.01L8.90 14.01Q8.68 14.01 8.72 13.78L8.72 13.78L10.65 5.19L10.65 5.19Q10.67 5.14 10.67 5.05L10.67 5.05L10.67 5.05Q10.67 4.80 10.46 4.75L10.46 4.75L10.46 4.75Q10.26 4.70 9.88 4.70L9.88 4.70L9.88 4.70Q9.70 4.70 9.70 4.56L9.70 4.56L9.70 4.56Q9.70 4.48 9.74 4.45L9.74 4.45L9.74 4.45Q9.79 4.41 9.88 4.41L9.88 4.41L11.42 4.41L11.42 4.41Q11.66 4.41 11.66 4.63L11.66 4.63L11.66 4.63Q11.66 4.70 11.65 4.75L11.65 4.75L10.61 9.45L10.74 9.45L10.74 9.45Q10.99 9.06 11.52 8.65L11.52 8.65L11.52 8.65Q12.04 8.23 12.80 8.23L12.80 8.23L12.80 8.23Q13.44 8.23 13.69 8.54L13.69 8.54L13.69 8.54Q13.93 8.85 13.93 9.37L13.93 9.37L13.93 9.37Q13.93 9.76 13.80 10.22L13.80 10.22L13.80 10.22Q13.66 10.68 13.37 11.48L13.37 11.48L13.37 11.48Q13.13 12.10 13.00 12.52L13.00 12.52L13.00 12.52Q12.87 12.95 12.87 13.26L12.87 13.26L12.87 13.26Q12.87 13.71 13.17 13.71L13.17 13.71L13.17 13.71Q13.47 13.71 13.80 13.26L13.80 13.26L13.80 13.26Q14.13 12.81 14.45 12.03L14.45 12.03L14.62 12.07L14.62 12.07Q14.18 13.06 13.78 13.61L13.78 13.61L13.78 13.61Q13.37 14.15 12.75 14.15L12.75 14.15ZM17.30 14.14L17.30 14.14Q16.49 14.14 15.92 13.61L15.92 13.61L15.92 13.61Q15.34 13.08 15.34 12.08L15.34 12.08L15.34 12.08Q15.34 11.80 15.44 11.27L15.44 11.27L15.44 11.27Q15.65 10.36 16.17 9.67L16.17 9.67L16.17 9.67Q16.69 8.97 17.33 8.60L17.33 8.60L17.33 8.60Q17.98 8.23 18.55 8.23L18.55 8.23L18.55 8.23Q19.42 8.23 19.80 8.80L19.80 8.80L19.80 8.80Q20.19 9.37 20.19 10.12L20.19 10.12L20.19 10.12Q20.19 10.47 20.13 10.68L20.13 10.68L20.13 10.68Q20.06 11.02 19.81 11.02L19.81 11.02L17.16 11.02L17.16 11.02Q16.81 11.02 16.65 11.07L16.65 11.07L16.65 11.07Q16.49 11.12 16.45 11.31L16.45 11.31L16.45 11.31Q16.44 11.41 16.37 11.77L16.37 11.77L16.37 11.77Q16.30 12.14 16.30 12.45L16.30 12.45L16.30 12.45Q16.30 13.83 17.57 13.83L17.57 13.83L17.61 13.83L17.61 13.83Q18.03 13.82 18.47 13.57L18.47 13.57L18.47 13.57Q18.91 13.33 19.47 12.67L19.47 12.67L19.47 12.67Q19.53 12.61 19.63 12.61L19.63 12.61L19.63 12.61Q19.70 12.61 19.72 12.66L19.72 12.66L19.72 12.66Q19.74 12.70 19.68 12.78L19.68 12.78L19.68 12.78Q19.57 12.95 19.26 13.27L19.26 13.27L19.26 13.27Q18.94 13.58 18.42 13.86L18.42 13.86L18.42 13.86Q17.91 14.14 17.30 14.14L17.30 14.14ZM16.65 10.67L18.87 10.67L18.87 10.67Q19.07 10.67 19.11 10.63L19.11 10.63L19.11 10.63Q19.15 10.60 19.19 10.42L19.19 10.42L19.19 10.42Q19.29 10.02 19.29 9.53L19.29 9.53L19.29 9.53Q19.29 8.47 18.56 8.47L18.56 8.47L18.56 8.47Q18.03 8.47 17.51 9.02L17.51 9.02L17.51 9.02Q16.98 9.58 16.65 10.67L16.65 10.67ZM22.89 14.14L22.89 14.14Q22.08 14.14 21.50 13.61L21.50 13.61L21.50 13.61Q20.93 13.08 20.93 12.08L20.93 12.08L20.93 12.08Q20.93 11.80 21.03 11.27L21.03 11.27L21.03 11.27Q21.24 10.36 21.76 9.67L21.76 9.67L21.76 9.67Q22.27 8.97 22.92 8.60L22.92 8.60L22.92 8.60Q23.56 8.23 24.14 8.23L24.14 8.23L24.14 8.23Q25.00 8.23 25.39 8.80L25.39 8.80L25.39 8.80Q25.77 9.37 25.77 10.12L25.77 10.12L25.77 10.12Q25.77 10.47 25.72 10.68L25.72 10.68L25.72 10.68Q25.65 11.02 25.40 11.02L25.40 11.02L22.75 11.02L22.75 11.02Q22.40 11.02 22.24 11.07L22.24 11.07L22.24 11.07Q22.08 11.12 22.04 11.31L22.04 11.31L22.04 11.31Q22.02 11.41 21.95 11.77L21.95 11.77L21.95 11.77Q21.88 12.14 21.88 12.45L21.88 12.45L21.88 12.45Q21.88 13.83 23.16 13.83L23.16 13.83L23.20 13.83L23.20 13.83Q23.62 13.82 24.06 13.57L24.06 13.57L24.06 13.57Q24.50 13.33 25.06 12.67L25.06 12.67L25.06 12.67Q25.12 12.61 25.21 12.61L25.21 12.61L25.21 12.61Q25.28 12.61 25.31 12.66L25.31 12.66L25.31 12.66Q25.33 12.70 25.27 12.78L25.27 12.78L25.27 12.78Q25.16 12.95 24.84 13.27L24.84 13.27L24.84 13.27Q24.53 13.58 24.01 13.86L24.01 13.86L24.01 13.86Q23.49 14.14 22.89 14.14L22.89 14.14ZM22.23 10.67L24.46 10.67L24.46 10.67Q24.65 10.67 24.70 10.63L24.70 10.63L24.70 10.63Q24.74 10.60 24.78 10.42L24.78 10.42L24.78 10.42Q24.88 10.02 24.88 9.53L24.88 9.53L24.88 9.53Q24.88 8.47 24.15 8.47L24.15 8.47L24.15 8.47Q23.62 8.47 23.09 9.02L23.09 9.02L23.09 9.02Q22.57 9.58 22.23 10.67L22.23 10.67Z"></path></g><!----><!----></svg>